<svg width="540" height="960" viewBox="0 0 540 960" xmlns="http://www.w3.org/2000/svg">
  <defs>
    <linearGradient id="warm" x1="0" y1="0" x2="0" y2="1">
      <stop offset="0%" stop-color="#1f0c14" />
      <stop offset="45%" stop-color="#3c141f" />
      <stop offset="100%" stop-color="#5a241d" />
    </linearGradient>
    <radialGradient id="glow" cx="0.5" cy="0.2" r="0.6">
      <stop offset="0%" stop-color="#ffedc7" stop-opacity="0.95" />
      <stop offset="70%" stop-color="#ffaf6d" stop-opacity="0.2" />
      <stop offset="100%" stop-color="#ff8040" stop-opacity="0" />
    </radialGradient>
  </defs>
  <rect width="540" height="960" fill="url(#warm)" />
  <rect width="540" height="960" fill="url(#glow)" />
  <g fill="#ffd966">
    <circle cx="120" cy="220" r="8" />
    <circle cx="200" cy="260" r="6" />
    <circle cx="280" cy="210" r="5" />
    <circle cx="360" cy="240" r="7" />
  </g>
  <rect x="60" y="360" width="420" height="320" rx="32" fill="#140b0f" opacity="0.8" />
  <path d="M270 340 L230 450 L310 450 Z" fill="#0f4f39" />
  <path d="M200 400 L240 500 L160 500 Z" fill="#144836" />
  <circle cx="260" cy="430" r="40" fill="#ffd966" opacity="0.4" />
  <rect x="150" y="520" width="240" height="120" rx="12" fill="#b7322d" opacity="0.95" />
  <rect x="175" y="545" width="190" height="70" rx="12" fill="#ffe1ca" />
  <rect x="230" y="545" width="80" height="70" fill="#b7322d" />
  <rect x="80" y="720" width="380" height="180" rx="60" fill="#0b110f" opacity="0.85" />
  <circle cx="170" cy="780" r="26" fill="#ffd966" />
  <circle cx="230" cy="840" r="18" fill="#ff9b6b" />
  <circle cx="360" cy="780" r="22" fill="#ffd966" />
  <circle cx="320" cy="830" r="10" fill="#ffcf6b" />
  <g fill="#fff" opacity="0.5">
    <circle cx="100" cy="160" r="3" />
    <circle cx="440" cy="180" r="2" />
    <circle cx="420" cy="120" r="3" />
  </g>
</svg>
