<svg width="540" height="960" viewBox="0 0 540 960" xmlns="http://www.w3.org/2000/svg">
  <defs>
    <linearGradient id="cool" x1="0" y1="0" x2="0" y2="1">
      <stop offset="0%" stop-color="#0d1f34" />
      <stop offset="45%" stop-color="#143a5b" />
      <stop offset="100%" stop-color="#1f5574" />
    </linearGradient>
    <radialGradient id="moonGlow" cx="0.75" cy="0.25" r="0.5">
      <stop offset="0%" stop-color="#f9f7da" stop-opacity="0.9" />
      <stop offset="100%" stop-color="#f9f7da" stop-opacity="0" />
    </radialGradient>
  </defs>
  <rect width="540" height="960" fill="url(#cool)" />
  <rect width="540" height="960" fill="url(#moonGlow)" />
  <circle cx="400" cy="170" r="70" fill="#fff6d0" opacity="0.9" />
  <circle cx="400" cy="170" r="110" fill="#fff6d0" opacity="0.2" />
  <g fill="#fff" opacity="0.7">
    <circle cx="60" cy="120" r="3" />
    <circle cx="130" cy="80" r="2" />
    <circle cx="200" cy="140" r="2" />
    <circle cx="320" cy="100" r="3" />
    <circle cx="460" cy="120" r="2" />
    <circle cx="140" cy="220" r="2" />
    <circle cx="500" cy="220" r="2" />
  </g>
  <path d="M0 660 Q140 600 270 660 T540 660 L540 960 L0 960 Z" fill="#f0fbff" />
  <path d="M0 720 Q160 680 320 720 T540 720 L540 960 L0 960 Z" fill="#d9f0ff" />
  <g fill="#0b4733">
    <path d="M80 700 L120 610 L160 700 Z" />
    <path d="M160 720 L210 610 L260 720 Z" />
    <path d="M300 700 L350 600 L400 700 Z" />
    <path d="M400 730 L460 620 L520 730 Z" />
  </g>
  <g fill="#ffe39f">
    <circle cx="160" cy="650" r="6" />
    <circle cx="210" cy="630" r="5" />
    <circle cx="300" cy="640" r="7" />
    <circle cx="350" cy="620" r="6" />
    <circle cx="430" cy="650" r="5" />
  </g>
  <rect x="100" y="780" width="340" height="150" rx="70" fill="#082a42" opacity="0.8" />
  <circle cx="200" cy="820" r="18" fill="#ffc86a" />
  <circle cx="340" cy="830" r="14" fill="#ffe6a8" />
  <circle cx="260" cy="880" r="24" fill="#ffd0a2" />
</svg>
