<svg width="640" height="960" viewBox="0 0 640 960" xmlns="http://www.w3.org/2000/svg">
  <defs>
    <linearGradient id="bg" x1="0" y1="0" x2="0" y2="1">
      <stop offset="0%" stop-color="#061a2c" />
      <stop offset="50%" stop-color="#102d46" />
      <stop offset="100%" stop-color="#153f54" />
    </linearGradient>
    <radialGradient id="glow" cx="0.5" cy="0.2" r="0.7">
      <stop offset="0%" stop-color="#ffe6a7" stop-opacity="0.9" />
      <stop offset="100%" stop-color="#ffbe5b" stop-opacity="0" />
    </radialGradient>
  </defs>
  <rect width="640" height="960" fill="url(#bg)" />
  <rect width="640" height="960" fill="url(#glow)" />
  <g fill="#fff6dd" opacity="0.8">
    <circle cx="80" cy="120" r="6" />
    <circle cx="140" cy="200" r="4" />
    <circle cx="320" cy="90" r="5" />
    <circle cx="520" cy="160" r="7" />
    <circle cx="440" cy="240" r="4" />
    <circle cx="220" cy="260" r="5" />
  </g>
  <g fill="#ff5353">
    <circle cx="60" cy="340" r="8" />
    <circle cx="180" cy="400" r="10" />
    <circle cx="360" cy="360" r="7" />
    <circle cx="480" cy="420" r="9" />
  </g>
  <g fill="#ffd966">
    <circle cx="120" cy="360" r="6" />
    <circle cx="280" cy="420" r="5" />
    <circle cx="420" cy="360" r="6" />
  </g>
  <g fill="#7cc6fe">
    <circle cx="200" cy="360" r="5" />
    <circle cx="520" cy="380" r="7" />
  </g>
  <path d="M120 520 L80 620 L160 620 Z" fill="#0d3b24" />
  <path d="M160 570 L120 670 L200 670 Z" fill="#145232" />
  <circle cx="140" cy="540" r="6" fill="#ffd966" />
  <path d="M320 500 L260 640 L380 640 Z" fill="#0b3a2a" />
  <path d="M360 560 L300 700 L420 700 Z" fill="#155b3f" />
  <circle cx="340" cy="520" r="7" fill="#ffe8a3" />
  <rect x="-20" y="720" width="700" height="260" fill="#08324a" />
  <g opacity="0.4" fill="#fff">
    <circle cx="160" cy="780" r="2" />
    <circle cx="420" cy="760" r="2" />
    <circle cx="520" cy="820" r="1.5" />
  </g>
</svg>
