<svg width="640" height="960" viewBox="0 0 640 960" xmlns="http://www.w3.org/2000/svg">
  <defs>
    <linearGradient id="dawn" x1="0" y1="0" x2="0" y2="1">
      <stop offset="0%" stop-color="#f24c6f" />
      <stop offset="45%" stop-color="#f7934c" />
      <stop offset="100%" stop-color="#6bc1e0" />
    </linearGradient>
  </defs>
  <rect width="640" height="960" fill="url(#dawn)" />
  <g fill="#ffffff" opacity="0.6">
    <circle cx="80" cy="120" r="3" />
    <circle cx="200" cy="60" r="4" />
    <circle cx="320" cy="90" r="3" />
    <circle cx="520" cy="80" r="5" />
    <circle cx="440" cy="160" r="3" />
    <circle cx="140" cy="200" r="2" />
    <circle cx="560" cy="210" r="2" />
    <circle cx="300" cy="200" r="3" />
  </g>
  <path d="M0 680 Q160 600 320 680 T640 680 L640 960 L0 960 Z" fill="#fefefe" />
  <path d="M0 720 Q160 660 320 720 T640 720 L640 960 L0 960 Z" fill="#f5f8ff" />
  <g fill="#0f4d35">
    <path d="M100 700 L140 620 L180 700 Z" />
    <path d="M60 750 L110 640 L160 750 Z" />
    <path d="M220 740 L270 630 L320 740 Z" />
    <path d="M420 720 L460 630 L500 720 Z" />
    <path d="M500 760 L550 650 L600 760 Z" />
  </g>
  <g fill="#13a77b" opacity="0.9">
    <path d="M150 780 L200 660 L250 780 Z" />
    <path d="M360 770 L410 660 L460 770 Z" />
  </g>
  <circle cx="500" cy="200" r="50" fill="#fff7cd" opacity="0.8" />
  <circle cx="500" cy="200" r="70" fill="#fff7cd" opacity="0.25" />
  <path d="M0 860 Q160 820 320 860 T640 860 L640 960 L0 960 Z" fill="#e3ecff" />
</svg>
