<svg width="640" height="960" viewBox="0 0 640 960" xmlns="http://www.w3.org/2000/svg">
  <defs>
    <linearGradient id="sky" x1="0" y1="0" x2="0" y2="1">
      <stop offset="0%" stop-color="#0f162b" />
      <stop offset="60%" stop-color="#1a2d45" />
      <stop offset="100%" stop-color="#1f3c4d" />
    </linearGradient>
  </defs>
  <rect width="640" height="960" fill="url(#sky)" />
  <g fill="#ffffff" opacity="0.85">
    <circle cx="80" cy="120" r="2" />
    <circle cx="160" cy="80" r="3" />
    <circle cx="220" cy="140" r="2" />
    <circle cx="360" cy="70" r="3" />
    <circle cx="520" cy="110" r="2" />
    <circle cx="420" cy="160" r="3" />
    <circle cx="300" cy="200" r="2" />
    <circle cx="120" cy="220" r="2" />
    <circle cx="520" cy="240" r="2" />
  </g>
  <rect x="0" y="640" width="640" height="320" fill="#f0f5ff" />
  <path d="M0 640 Q160 580 320 640 T640 640 L640 960 L0 960 Z" fill="#e1edff" />
  <g>
    <rect x="80" y="640" width="160" height="120" rx="12" fill="#b82030" />
    <rect x="120" y="680" width="80" height="80" fill="#ffe8c2" />
    <rect x="140" y="705" width="40" height="45" rx="4" fill="#b82030" />
    <rect x="120" y="640" width="80" height="20" fill="#ffd966" />
    <circle cx="90" cy="650" r="10" fill="#ffd966" />
    <circle cx="230" cy="650" r="10" fill="#ffd966" />
  </g>
  <g>
    <rect x="360" y="600" width="180" height="160" rx="12" fill="#0b6c5c" />
    <rect x="400" y="660" width="80" height="100" fill="#ffe8c2" />
    <path d="M360 600 L450 540 L540 600 Z" fill="#ffd966" />
    <rect x="430" y="690" width="30" height="70" fill="#0b6c5c" />
    <circle cx="380" cy="620" r="12" fill="#ffd966" />
    <circle cx="520" cy="620" r="12" fill="#ffd966" />
  </g>
  <path d="M70 720 L110 640 L150 720 Z" fill="#0f513b" />
  <path d="M470 720 L510 640 L550 720 Z" fill="#17604c" />
  <g fill="#fffbef" opacity="0.9">
    <circle cx="120" cy="760" r="5" />
    <circle cx="220" cy="750" r="4" />
    <circle cx="460" cy="760" r="5" />
    <circle cx="520" cy="750" r="4" />
  </g>
</svg>
